<?xml version="1.0" standalone="no"?>
<!DOCTYPE svg PUBLIC "-//W3C//DTD SVG 20010904//EN"
 "http://www.w3.org/TR/2001/REC-SVG-20010904/DTD/svg10.dtd">
<svg version="1.0" xmlns="http://www.w3.org/2000/svg"
 width="512.000000pt" height="512.000000pt" viewBox="0 0 512.000000 512.000000"
 preserveAspectRatio="xMidYMid meet">
<metadata>
Created by potrace 1.15, written by Peter Selinger 2001-2017
</metadata>
<g transform="translate(0.000000,512.000000) scale(0.100000,-0.100000)"
fill="#000000" stroke="none">
<path d="M3270 5103 c-67 -46 -975 -779 -1034 -833 -169 -159 -316 -378 -399
-595 -19 -49 -207 -583 -417 -1185 -211 -602 -384 -1096 -384 -1097 -1 -1 -71
-20 -156 -42 -200 -51 -338 -99 -478 -167 -145 -69 -233 -127 -305 -203 -74
-77 -97 -127 -97 -211 0 -85 29 -147 105 -223 272 -276 1012 -479 1962 -536
222 -14 764 -14 986 0 948 57 1686 259 1962 534 75 75 105 140 105 225 0 84
-23 134 -97 211 -140 147 -408 273 -783 370 -85 22 -158 43 -161 47 -10 10
-706 1941 -735 2036 -79 262 -78 403 10 1086 71 555 71 566 25 590 -28 15 -82
12 -109 -7z m-676 -2553 c19 -7 41 -39 87 -132 34 -68 63 -125 64 -126 2 -2
64 -13 137 -24 73 -11 143 -26 155 -34 23 -15 38 -62 28 -93 -3 -11 -50 -62
-105 -114 l-98 -95 23 -133 c24 -141 21 -180 -15 -199 -36 -19 -73 -9 -191 51
l-119 61 -93 -48 c-50 -26 -101 -53 -112 -60 -23 -16 -78 -18 -105 -4 -36 19
-39 58 -15 199 l23 133 -98 95 c-103 98 -119 127 -101 176 14 37 35 44 183 65
71 10 130 21 132 23 2 2 31 59 65 127 70 139 91 157 155 132z m-1505 -1220
c113 -32 641 -100 936 -120 217 -15 839 -15 1060 -1 308 21 653 64 893 112 57
11 106 19 108 16 2 -2 43 -109 89 -238 92 -251 97 -284 52 -314 -54 -35 -514
-114 -867 -149 -495 -49 -1104 -49 -1600 0 -282 27 -768 106 -843 136 -32 13
-57 44 -57 73 0 11 37 127 82 258 88 253 83 246 147 227z"/>
</g>
</svg>
